<svg width="33" height="12" viewBox="0 0 33 12" fill="none" xmlns="http://www.w3.org/2000/svg">
<path d="M0.232955 11H6.19886V9.90625H1.46591V0.818182H0.232955V11ZM7.94886 11H9.12216V3.36364H7.94886V11ZM8.54545 2.09091C9.00284 2.09091 9.38068 1.73295 9.38068 1.29545C9.38068 0.857955 9.00284 0.5 8.54545 0.5C8.08807 0.5 7.71023 0.857955 7.71023 1.29545C7.71023 1.73295 8.08807 2.09091 8.54545 2.09091ZM12.4444 6.40625C12.4444 5.07386 13.2697 4.31818 14.3933 4.31818C15.4821 4.31818 16.1433 5.02912 16.1433 6.22727V11H17.3166V6.14773C17.3166 4.19886 16.2775 3.2642 14.7314 3.2642C13.5779 3.2642 12.862 3.78125 12.5041 4.55682H12.4047V3.36364H11.2711V11H12.4444V6.40625ZM19.4606 11H20.6339V8.14134L21.4542 7.38068L24.3129 11H25.8043L22.3391 6.625L25.5657 3.36364H24.114L20.7731 6.7642H20.6339V0.818182H19.4606V11ZM32.4849 5.07386C32.117 3.99006 31.2917 3.2642 29.7804 3.2642C28.1696 3.2642 26.9764 4.17898 26.9764 5.47159C26.9764 6.52557 27.6028 7.23153 29.0048 7.55966L30.2775 7.85795C31.0481 8.03693 31.411 8.40483 31.411 8.93182C31.411 9.58807 30.715 10.125 29.6213 10.125C28.6618 10.125 28.0602 9.71236 27.8514 8.89205L26.7377 9.17045C27.0112 10.468 28.0801 11.1591 29.6412 11.1591C31.416 11.1591 32.6241 10.1896 32.6241 8.87216C32.6241 7.80824 31.9579 7.13707 30.5957 6.80398L29.4622 6.52557C28.5574 6.30185 28.1497 5.99858 28.1497 5.41193C28.1497 4.75568 28.8457 4.27841 29.7804 4.27841C30.8045 4.27841 31.2271 4.84517 31.4309 5.37216L32.4849 5.07386Z" fill="white"/>
</svg>
