<svg width="39" height="15" viewBox="0 0 39 15" fill="none" xmlns="http://www.w3.org/2000/svg">
<path opacity="0.6" d="M0.232955 11H6.19886V9.90625H1.46591V0.818182H0.232955V11ZM11.0511 11.1591C13.1193 11.1591 14.5114 9.58807 14.5114 7.22159C14.5114 4.83523 13.1193 3.2642 11.0511 3.2642C8.98295 3.2642 7.59091 4.83523 7.59091 7.22159C7.59091 9.58807 8.98295 11.1591 11.0511 11.1591ZM11.0511 10.1051C9.48011 10.1051 8.7642 8.75284 8.7642 7.22159C8.7642 5.69034 9.48011 4.31818 11.0511 4.31818C12.6222 4.31818 13.3381 5.69034 13.3381 7.22159C13.3381 8.75284 12.6222 10.1051 11.0511 10.1051ZM19.3848 14.0227C21.2143 14.0227 22.6859 13.1875 22.6859 11.2188V3.36364H21.5524V4.5767H21.4331C21.1745 4.17898 20.6973 3.2642 19.2058 3.2642C17.2768 3.2642 15.9444 4.79545 15.9444 7.14205C15.9444 9.52841 17.3365 10.8807 19.1859 10.8807C20.6774 10.8807 21.1547 10.0057 21.4132 9.58807H21.5126V11.1392C21.5126 12.4119 20.6177 12.9886 19.3848 12.9886C17.9977 12.9886 17.5105 12.2578 17.1973 11.8352L16.2626 12.4915C16.7399 13.2919 17.6795 14.0227 19.3848 14.0227ZM19.345 9.8267C17.8734 9.8267 17.1177 8.71307 17.1177 7.12216C17.1177 5.57102 17.8535 4.31818 19.345 4.31818C20.7768 4.31818 21.5325 5.47159 21.5325 7.12216C21.5325 8.8125 20.7569 9.8267 19.345 9.8267ZM28.7711 11H29.9444V3.36364H28.7711V11ZM29.3677 2.09091C29.8251 2.09091 30.2029 1.73295 30.2029 1.29545C30.2029 0.857955 29.8251 0.5 29.3677 0.5C28.9103 0.5 28.5325 0.857955 28.5325 1.29545C28.5325 1.73295 28.9103 2.09091 29.3677 2.09091ZM33.2667 6.40625C33.2667 5.07386 34.092 4.31818 35.2156 4.31818C36.3043 4.31818 36.9656 5.02912 36.9656 6.22727V11H38.1388V6.14773C38.1388 4.19886 37.0998 3.2642 35.5536 3.2642C34.4002 3.2642 33.6843 3.78125 33.3263 4.55682H33.2269V3.36364H32.0934V11H33.2667V6.40625Z" fill="white"/>
</svg>
