<svg width="49" height="15" viewBox="0 0 49 15" fill="none" xmlns="http://www.w3.org/2000/svg">
<path opacity="0.6" d="M6.80114 3.36364H7.99432C7.93963 1.82741 6.52273 0.678977 4.55398 0.678977C2.60511 0.678977 1.07386 1.8125 1.07386 3.52273C1.07386 4.89489 2.06818 5.71023 3.65909 6.16761L4.91193 6.52557C5.9858 6.82386 6.94034 7.2017 6.94034 8.21591C6.94034 9.32955 5.86648 10.0653 4.45455 10.0653C3.24148 10.0653 2.16761 9.52841 2.06818 8.375H0.795455C0.914773 10.0455 2.26705 11.179 4.45455 11.179C6.80114 11.179 8.13352 9.88636 8.13352 8.2358C8.13352 6.3267 6.32386 5.71023 5.26989 5.43182L4.2358 5.15341C3.48011 4.95455 2.26705 4.55682 2.26705 3.46307C2.26705 2.48864 3.16193 1.77273 4.5142 1.77273C5.74716 1.77273 6.68182 2.35938 6.80114 3.36364ZM10.0016 11H11.1749V3.36364H10.0016V11ZM10.5982 2.09091C11.0556 2.09091 11.4334 1.73295 11.4334 1.29545C11.4334 0.857955 11.0556 0.5 10.5982 0.5C10.1408 0.5 9.76296 0.857955 9.76296 1.29545C9.76296 1.73295 10.1408 2.09091 10.5982 2.09091ZM16.4062 14.0227C18.2358 14.0227 19.7074 13.1875 19.7074 11.2188V3.36364H18.5739V4.5767H18.4545C18.196 4.17898 17.7188 3.2642 16.2273 3.2642C14.2983 3.2642 12.9659 4.79545 12.9659 7.14205C12.9659 9.52841 14.358 10.8807 16.2074 10.8807C17.6989 10.8807 18.1761 10.0057 18.4347 9.58807H18.5341V11.1392C18.5341 12.4119 17.6392 12.9886 16.4062 12.9886C15.0192 12.9886 14.532 12.2578 14.2188 11.8352L13.2841 12.4915C13.7614 13.2919 14.701 14.0227 16.4062 14.0227ZM16.3665 9.8267C14.8949 9.8267 14.1392 8.71307 14.1392 7.12216C14.1392 5.57102 14.875 4.31818 16.3665 4.31818C17.7983 4.31818 18.554 5.47159 18.554 7.12216C18.554 8.8125 17.7784 9.8267 16.3665 9.8267ZM23.0284 6.40625C23.0284 5.07386 23.8537 4.31818 24.9773 4.31818C26.0661 4.31818 26.7273 5.02912 26.7273 6.22727V11H27.9006V6.14773C27.9006 4.19886 26.8615 3.2642 25.3153 3.2642C24.1619 3.2642 23.446 3.78125 23.0881 4.55682H22.9886V3.36364H21.8551V11H23.0284V6.40625ZM38.7946 7.87784C38.7946 9.30966 37.7008 9.96591 36.8258 9.96591C35.8514 9.96591 35.1554 9.25 35.1554 8.13636V3.36364H33.9821V8.21591C33.9821 10.1648 35.0162 11.0994 36.448 11.0994C37.6014 11.0994 38.3571 10.483 38.715 9.70739H38.7946V11H39.9679V3.36364H38.7946V7.87784ZM42.1168 13.8636H43.2901V9.8267H43.3896C43.6481 10.2443 44.1452 11.1591 45.6168 11.1591C47.5259 11.1591 48.8583 9.62784 48.8583 7.2017C48.8583 4.79545 47.5259 3.2642 45.5969 3.2642C44.1055 3.2642 43.6481 4.17898 43.3896 4.5767H43.2504V3.36364H42.1168V13.8636ZM43.2702 7.18182C43.2702 5.47159 44.0259 4.31818 45.4577 4.31818C46.9492 4.31818 47.685 5.57102 47.685 7.18182C47.685 8.8125 46.9293 10.1051 45.4577 10.1051C44.0458 10.1051 43.2702 8.91193 43.2702 7.18182Z" fill="white"/>
</svg>
